<mxfile host="app.diagrams.net" modified="2024-03-23T14:03:53.052Z" agent="Mozilla/5.0 (Windows NT 10.0; Win64; x64) AppleWebKit/537.36 (KHTML, like Gecko) Chrome/122.0.0.0 Safari/537.36" etag="dJ4W5bGwAG8EnSG5QIcg" version="24.0.7" type="device">
  <diagram name="Page-1" id="SU60sq1JpARpPboAShl4">
    <mxGraphModel dx="765" dy="377" grid="1" gridSize="10" guides="1" tooltips="1" connect="1" arrows="1" fold="1" page="1" pageScale="1" pageWidth="1100" pageHeight="850" math="0" shadow="0">
      <root>
        <mxCell id="0" />
        <mxCell id="1" parent="0" />
        <mxCell id="V5IhNWpGlspnbuF5FuDv-20" value="" style="edgeStyle=orthogonalEdgeStyle;rounded=0;orthogonalLoop=1;jettySize=auto;html=1;entryX=1;entryY=0.5;entryDx=0;entryDy=0;strokeWidth=2;fontStyle=1" edge="1" parent="1" source="pmOOVxwG420c-32HkS5u-2" target="vg0kWMwHj4yGYG_CBvBX-10">
          <mxGeometry relative="1" as="geometry">
            <mxPoint x="700" y="670" as="targetPoint" />
            <Array as="points">
              <mxPoint x="730" y="655" />
            </Array>
          </mxGeometry>
        </mxCell>
        <mxCell id="pmOOVxwG420c-32HkS5u-2" value="&lt;font face=&quot;Times New Roman&quot; size=&quot;1&quot;&gt;&lt;span style=&quot;font-size: 16px;&quot;&gt;&lt;br&gt;&lt;/span&gt;&lt;/font&gt;" style="rounded=0;whiteSpace=wrap;html=1;strokeWidth=2;container=0;fontStyle=1" parent="1" vertex="1">
          <mxGeometry x="640" y="390" width="180" height="190" as="geometry" />
        </mxCell>
        <mxCell id="pmOOVxwG420c-32HkS5u-4" value="&lt;span style=&quot;border-color: var(--border-color); color: rgb(0, 0, 0); font-family: &amp;quot;Times New Roman&amp;quot;; font-style: normal; font-variant-ligatures: normal; font-variant-caps: normal; letter-spacing: normal; orphans: 2; text-align: center; text-indent: 0px; text-transform: none; widows: 2; word-spacing: 0px; -webkit-text-stroke-width: 0px; background-color: rgb(251, 251, 251); text-decoration-thickness: initial; text-decoration-style: initial; text-decoration-color: initial; font-size: 16px;&quot;&gt;Antipattern &lt;br&gt;Detection Tool&lt;br&gt;&lt;/span&gt;" style="text;whiteSpace=wrap;html=1;container=0;strokeWidth=2;fontStyle=1" parent="1" vertex="1">
          <mxGeometry x="665" y="340" width="135" height="40" as="geometry" />
        </mxCell>
        <mxCell id="HHuTXF0BT0n3mswBOlXm-25" value="&lt;font style=&quot;font-size: 15px;&quot; face=&quot;Times New Roman&quot;&gt;&lt;span style=&quot;&quot;&gt;Syntactical&amp;nbsp;&lt;br&gt;Analysis&lt;br&gt;&lt;/span&gt;&lt;/font&gt;" style="rounded=0;whiteSpace=wrap;html=1;strokeWidth=2;container=0;fontStyle=0" parent="1" vertex="1">
          <mxGeometry x="650" y="430" width="160" height="40" as="geometry" />
        </mxCell>
        <mxCell id="HHuTXF0BT0n3mswBOlXm-26" value="&lt;font style=&quot;&quot; face=&quot;Times New Roman&quot;&gt;&lt;span style=&quot;&quot;&gt;&lt;font style=&quot;font-size: 15px;&quot;&gt;Heuristics&lt;/font&gt;&lt;br&gt;&lt;/span&gt;&lt;/font&gt;" style="rounded=0;whiteSpace=wrap;html=1;strokeWidth=2;container=0;fontStyle=0" parent="1" vertex="1">
          <mxGeometry x="650" y="395" width="160" height="25" as="geometry" />
        </mxCell>
        <mxCell id="HHuTXF0BT0n3mswBOlXm-27" value="&lt;font face=&quot;Times New Roman&quot; style=&quot;font-size: 11px;&quot;&gt;&lt;span style=&quot;&quot;&gt;&lt;br&gt;&lt;/span&gt;&lt;/font&gt;" style="rounded=0;whiteSpace=wrap;html=1;strokeWidth=2;container=0;fontStyle=1" parent="1" vertex="1">
          <mxGeometry x="650" y="480" width="160" height="90" as="geometry" />
        </mxCell>
        <mxCell id="HHuTXF0BT0n3mswBOlXm-28" value="&lt;font style=&quot;&quot; face=&quot;Times New Roman&quot;&gt;&lt;span style=&quot;&quot;&gt;&lt;font style=&quot;font-size: 15px;&quot;&gt;LDA Topic Model&lt;/font&gt;&lt;br&gt;&lt;/span&gt;&lt;/font&gt;" style="rounded=0;whiteSpace=wrap;html=1;strokeWidth=2;container=0;fontStyle=0" parent="1" vertex="1">
          <mxGeometry x="660" y="515" width="140" height="20" as="geometry" />
        </mxCell>
        <mxCell id="HHuTXF0BT0n3mswBOlXm-30" value="&lt;font style=&quot;&quot; face=&quot;Times New Roman&quot;&gt;&lt;span style=&quot;&quot;&gt;&lt;font style=&quot;font-size: 15px;&quot;&gt;Semantical Analysis&lt;/font&gt;&lt;br&gt;&lt;/span&gt;&lt;/font&gt;" style="rounded=0;whiteSpace=wrap;html=1;strokeWidth=2;container=0;fillColor=none;strokeColor=none;fontStyle=0" parent="1" vertex="1">
          <mxGeometry x="660" y="490" width="140" height="20" as="geometry" />
        </mxCell>
        <mxCell id="HHuTXF0BT0n3mswBOlXm-63" value="&lt;font style=&quot;&quot; face=&quot;Times New Roman&quot;&gt;&lt;span style=&quot;&quot;&gt;&lt;font style=&quot;font-size: 15px;&quot;&gt;Cosine Similarity&lt;/font&gt;&lt;br&gt;&lt;/span&gt;&lt;/font&gt;" style="rounded=0;whiteSpace=wrap;html=1;strokeWidth=2;container=0;fontStyle=0" parent="1" vertex="1">
          <mxGeometry x="660" y="540" width="140" height="20" as="geometry" />
        </mxCell>
        <mxCell id="V5IhNWpGlspnbuF5FuDv-2" value="" style="edgeStyle=orthogonalEdgeStyle;rounded=0;orthogonalLoop=1;jettySize=auto;html=1;strokeWidth=2;fontStyle=1" edge="1" parent="1" source="vg0kWMwHj4yGYG_CBvBX-2" target="vg0kWMwHj4yGYG_CBvBX-7">
          <mxGeometry relative="1" as="geometry" />
        </mxCell>
        <mxCell id="vg0kWMwHj4yGYG_CBvBX-2" value="&lt;font face=&quot;Times New Roman&quot; size=&quot;1&quot;&gt;&lt;span style=&quot;font-size: 16px;&quot;&gt;REST&amp;nbsp;&lt;/span&gt;&lt;/font&gt;&lt;div&gt;&lt;font face=&quot;Times New Roman&quot; size=&quot;1&quot;&gt;&lt;span style=&quot;font-size: 16px;&quot;&gt;APIs&lt;/span&gt;&lt;/font&gt;&lt;/div&gt;" style="rounded=0;whiteSpace=wrap;html=1;strokeWidth=2;container=0;fontStyle=1" parent="1" vertex="1">
          <mxGeometry x="300" y="435" width="100" height="45" as="geometry" />
        </mxCell>
        <mxCell id="V5IhNWpGlspnbuF5FuDv-6" value="" style="edgeStyle=orthogonalEdgeStyle;rounded=0;orthogonalLoop=1;jettySize=auto;html=1;strokeWidth=2;entryX=0.585;entryY=-0.001;entryDx=0;entryDy=0;entryPerimeter=0;fontStyle=1" edge="1" parent="1" source="vg0kWMwHj4yGYG_CBvBX-7" target="SRh0s-oIHB4yDXquQM8V-11">
          <mxGeometry relative="1" as="geometry">
            <mxPoint x="600" y="330" as="targetPoint" />
            <Array as="points">
              <mxPoint x="600" y="490" />
              <mxPoint x="600" y="330" />
              <mxPoint x="860" y="330" />
            </Array>
          </mxGeometry>
        </mxCell>
        <mxCell id="vg0kWMwHj4yGYG_CBvBX-7" value="&lt;font face=&quot;Times New Roman&quot; size=&quot;1&quot;&gt;&lt;span style=&quot;font-size: 16px;&quot;&gt;Pre-processing&lt;/span&gt;&lt;/font&gt;" style="rounded=0;whiteSpace=wrap;html=1;strokeWidth=2;container=0;fontStyle=1" parent="1" vertex="1">
          <mxGeometry x="470" y="470" width="100" height="50" as="geometry" />
        </mxCell>
        <mxCell id="V5IhNWpGlspnbuF5FuDv-14" value="" style="edgeStyle=orthogonalEdgeStyle;rounded=0;orthogonalLoop=1;jettySize=auto;html=1;strokeWidth=2;fontStyle=1" edge="1" parent="1" source="vg0kWMwHj4yGYG_CBvBX-10" target="vg0kWMwHj4yGYG_CBvBX-11">
          <mxGeometry relative="1" as="geometry" />
        </mxCell>
        <mxCell id="vg0kWMwHj4yGYG_CBvBX-10" value="&lt;span style=&quot;border-color: var(--border-color); font-family: &amp;quot;Times New Roman&amp;quot;; font-size: 16px;&quot;&gt;Result Analysis&lt;/span&gt;&lt;font face=&quot;Times New Roman&quot; size=&quot;1&quot;&gt;&lt;span style=&quot;font-size: 16px;&quot;&gt;&lt;br&gt;&lt;/span&gt;&lt;/font&gt;" style="rounded=0;whiteSpace=wrap;html=1;strokeWidth=2;container=0;fontStyle=1" parent="1" vertex="1">
          <mxGeometry x="470" y="630" width="100" height="50" as="geometry" />
        </mxCell>
        <mxCell id="vg0kWMwHj4yGYG_CBvBX-11" value="&lt;span style=&quot;border-color: var(--border-color); font-family: &amp;quot;Times New Roman&amp;quot;; font-size: 16px;&quot;&gt;Recommendation System&lt;/span&gt;&lt;font face=&quot;Times New Roman&quot; size=&quot;1&quot;&gt;&lt;span style=&quot;font-size: 16px;&quot;&gt;&lt;br&gt;&lt;/span&gt;&lt;/font&gt;" style="rounded=0;whiteSpace=wrap;html=1;strokeWidth=2;container=0;fontStyle=1;fillColor=#e3c800;strokeColor=#B09500;fontColor=#000000;" parent="1" vertex="1">
          <mxGeometry x="300" y="630" width="120" height="50" as="geometry" />
        </mxCell>
        <mxCell id="V5IhNWpGlspnbuF5FuDv-3" value="" style="edgeStyle=orthogonalEdgeStyle;rounded=0;orthogonalLoop=1;jettySize=auto;html=1;strokeWidth=2;fontStyle=1" edge="1" parent="1" source="PCIvJfl5rsrQEbTtggmR-1" target="vg0kWMwHj4yGYG_CBvBX-7">
          <mxGeometry relative="1" as="geometry" />
        </mxCell>
        <mxCell id="PCIvJfl5rsrQEbTtggmR-1" value="&lt;font face=&quot;Times New Roman&quot;&gt;&lt;span style=&quot;font-size: 16px;&quot;&gt;GraphQL&lt;/span&gt;&lt;/font&gt;&lt;br&gt;&lt;div&gt;&lt;font face=&quot;Times New Roman&quot; size=&quot;1&quot;&gt;&lt;span style=&quot;font-size: 16px;&quot;&gt;APIs&lt;/span&gt;&lt;/font&gt;&lt;/div&gt;" style="rounded=0;whiteSpace=wrap;html=1;strokeWidth=2;container=0;fontStyle=1" parent="1" vertex="1">
          <mxGeometry x="300" y="515" width="100" height="45" as="geometry" />
        </mxCell>
        <mxCell id="V5IhNWpGlspnbuF5FuDv-22" value="" style="edgeStyle=orthogonalEdgeStyle;rounded=0;orthogonalLoop=1;jettySize=auto;html=1;entryX=1;entryY=0.5;entryDx=0;entryDy=0;strokeWidth=2;fontStyle=1" edge="1" parent="1" source="SRh0s-oIHB4yDXquQM8V-11" target="vg0kWMwHj4yGYG_CBvBX-10">
          <mxGeometry relative="1" as="geometry">
            <mxPoint x="650" y="655" as="targetPoint" />
          </mxGeometry>
        </mxCell>
        <mxCell id="SRh0s-oIHB4yDXquQM8V-11" value="&lt;span style=&quot;border-color: var(--border-color); font-family: &amp;quot;Times New Roman&amp;quot;; font-size: 16px;&quot;&gt;Manual Validation&lt;/span&gt;&lt;font face=&quot;Times New Roman&quot; size=&quot;1&quot;&gt;&lt;span style=&quot;font-size: 16px;&quot;&gt;&lt;br&gt;&lt;/span&gt;&lt;/font&gt;" style="rounded=0;whiteSpace=wrap;html=1;strokeWidth=2;container=0;fontStyle=1" parent="1" vertex="1">
          <mxGeometry x="790" y="630" width="120" height="50" as="geometry" />
        </mxCell>
        <mxCell id="V5IhNWpGlspnbuF5FuDv-7" value="" style="edgeStyle=orthogonalEdgeStyle;rounded=0;orthogonalLoop=1;jettySize=auto;html=1;strokeWidth=2;fontStyle=1" edge="1" parent="1">
          <mxGeometry relative="1" as="geometry">
            <mxPoint x="569.52" y="489.52" as="sourcePoint" />
            <mxPoint x="640" y="490" as="targetPoint" />
          </mxGeometry>
        </mxCell>
      </root>
    </mxGraphModel>
  </diagram>
</mxfile>
